<?xml version="1.0" encoding="UTF-8"?>
<svg id="Layer_2" data-name="Layer 2" xmlns="http://www.w3.org/2000/svg" viewBox="0 0 276.14 289.14">
  <defs>
    <style>
      .cls-1 {
        fill: #231f20;
      }
    </style>
  </defs>
  <g id="Layer_1-2" data-name="Layer 1">
    <path class="cls-1" d="M136.89,12.8c-6.43-.5-12.74-1.36-18.98.11-13.26,2.95-25.65,16.71-22.6,30.03,2.87,10.3,15.87,17.84,24.85,22.93,20.9,10.63,45.37,13.15,69.09,20.93,3.8,1.24,9.27,3.1,12.97,4.55,49.25,18.02,83.95,70.42,71.3,123.41-9.4,39.51-45.79,69.49-85.78,73.54C105.9,297.12,27.35,236.28,0,161.98c29.99,21.18,60.45,39.92,94.97,51.48,18.22,6.16,37.44,10.24,56.61,10.2,9.39-.03,19.22-1.27,28.03-3.96,7.89-2.77,15.01-8.28,19.14-15.56,3.81-6.9,3.52-14.57.69-22.06-4.31-11.39-13.73-20.89-25.1-26.62-2.7-1.39-6.72-3.41-9.48-4.71-24.48-11.17-53.49-20.91-75.01-40.48-23.94-21.15-42.91-53.95-25.4-85.13C75.03,6.54,98.44-4.43,118.77,1.71c7.56,2.41,12.97,6.65,18.12,11.09h0Z"/>
  </g>
</svg>