<svg width="103" height="103" viewBox="0 0 103 103" fill="none" xmlns="http://www.w3.org/2000/svg">
<path d="M56.2339 47.1677H77.4839L71.1089 40.7927L77.1439 34.7577L93.8039 51.4177L77.1439 68.0777L71.1089 62.0427L77.4839 55.6677H56.2339V76.9177L62.6089 70.5427L68.6439 76.5777L51.9839 93.2377L35.3239 76.5777L41.3589 70.5427L47.7339 76.9177V55.6677H26.4839L32.8589 62.0427L26.8239 68.0777L10.1639 51.4177L26.8239 34.7577L32.8589 40.7927L26.4839 47.1677H47.7339V25.9177L41.3589 32.2927L35.3239 26.2577L51.9839 9.59768L68.6439 26.2577L62.6089 32.2927L56.2339 25.9177V47.1677Z" fill="black"/>
</svg>
